<?xml version="1.0" standalone="no"?>
<!DOCTYPE svg PUBLIC "-//W3C//DTD SVG 20010904//EN"
 "http://www.w3.org/TR/2001/REC-SVG-20010904/DTD/svg10.dtd">
<svg version="1.0" xmlns="http://www.w3.org/2000/svg"
 width="43.000000pt" height="43.000000pt" viewBox="0 0 43.000000 43.000000"
 preserveAspectRatio="xMidYMid meet">

<g transform="translate(0.000000,43.000000) scale(0.100000,-0.100000)"
fill="#000000" stroke="none">
<path d="M0 215 l0 -215 215 0 215 0 0 215 0 215 -215 0 -215 0 0 -215z m200
16 c0 -105 -2 -121 -21 -145 -39 -49 -149 -27 -149 30 0 17 5 24 20 24 11 0
20 -7 20 -15 0 -9 12 -21 26 -27 23 -11 29 -10 45 11 16 20 19 40 19 132 0
102 1 109 20 109 19 0 20 -7 20 -119z m130 94 c0 -27 9 -32 28 -13 9 9 15 9
25 -1 7 -8 8 -15 2 -17 -37 -15 -40 -24 -16 -43 28 -21 13 -38 -19 -21 -18 9
-20 8 -20 -15 0 -16 -6 -25 -15 -25 -9 0 -15 10 -15 26 0 17 -4 24 -12 21 -7
-3 -21 -8 -30 -12 -27 -11 -23 20 4 32 l23 10 -23 12 c-25 13 -31 47 -7 37 8
-3 22 -9 30 -12 11 -5 15 1 15 20 0 16 6 26 15 26 9 0 15 -9 15 -25z"/>
</g>
</svg>
